# Blender v2.90.1 OBJ File: 'LowPoly Spaceships.blend'
# www.blender.org
mtllib m4-part08.mtl
o Bone.002_Cube.032
v 0.732082 0.094505 -6.097281
v 0.732082 -0.781851 -6.097281
v 0.732082 0.094505 6.097281
v 0.732082 -0.781851 6.097281
v 0.999484 0.781851 -4.355201
v 0.999484 0.781851 -2.613120
v 0.999484 0.781851 -0.871040
v 0.999484 0.781851 0.871040
v 0.999484 0.781851 2.613121
v 0.999484 0.781851 4.355201
v 0.999484 -0.781851 4.355201
v 0.999484 -0.781851 2.613120
v 0.999484 -0.781851 0.871040
v 0.999484 -0.781851 -0.871040
v 0.999484 -0.781851 -2.613121
v 0.999484 -0.781851 -4.355201
v 4.482983 -0.275988 -2.795777
v 4.482983 -0.275988 -1.677466
v 4.482983 -0.275988 -0.559155
v 4.482983 -0.275988 0.559156
v 4.482983 -0.275988 1.677467
v 4.482983 -0.275988 2.795778
v 4.482983 -1.279790 2.795777
v 4.482983 -1.279790 1.677466
v 4.482983 -1.279790 0.559155
v 4.482983 -1.279790 -0.559156
v 4.482983 -1.279790 -1.677467
v 4.482983 -1.279790 -2.795778
v -0.732082 0.094505 -6.097281
v -0.732082 -0.781851 -6.097281
v -0.732082 0.094505 6.097281
v -0.732082 -0.781851 6.097281
v -0.999484 0.781851 -4.355201
v -0.999484 0.781851 -2.613120
v -0.999484 0.781851 -0.871040
v -0.999484 0.781851 0.871040
v -0.999484 0.781851 2.613121
v -0.999484 0.781851 4.355201
v -0.999484 -0.781851 4.355201
v -0.999484 -0.781851 2.613120
v -0.999484 -0.781851 0.871040
v -0.999484 -0.781851 -0.871040
v -0.999484 -0.781851 -2.613121
v -0.999484 -0.781851 -4.355201
v -4.482983 -0.275988 -2.795777
v -4.482983 -0.275988 -1.677466
v -4.482983 -0.275988 -0.559155
v -4.482983 -0.275988 0.559156
v -4.482983 -0.275988 1.677467
v -4.482983 -0.275988 2.795778
v -4.482983 -1.279790 2.795777
v -4.482983 -1.279790 1.677466
v -4.482983 -1.279790 0.559155
v -4.482983 -1.279790 -0.559156
v -4.482983 -1.279790 -1.677467
v -4.482983 -1.279790 -2.795778
v 0.000000 -0.781851 -6.097281
v 0.000000 0.094505 6.097281
v 0.000000 -0.781851 6.097281
v 0.000000 0.094505 -6.097281
v 0.000000 0.781851 -4.355201
v 0.000000 0.781851 -2.613120
v 0.000000 0.781851 -0.871040
v 0.000000 0.781851 0.871040
v 0.000000 0.781851 2.613121
v 0.000000 0.781851 4.355201
v 0.000000 -0.781851 -4.355201
v 0.000000 -0.781851 -2.613120
v 0.000000 -0.781851 -0.871040
v 0.000000 -0.781851 0.871040
v 0.000000 -0.781851 2.613121
v 0.000000 -0.781851 4.355201
vt 0.627959 0.358270
vt 0.541053 0.300927
vt 0.557437 0.276097
vt 0.644342 0.333440
vt 0.367243 0.186241
vt 0.383627 0.161411
vt 0.385408 0.536813
vt 0.211598 0.422127
vt 0.268941 0.335222
vt 0.442751 0.449908
vt 0.280338 0.128898
vt 0.296722 0.104068
vt 0.440970 0.074506
vt 0.614780 0.189192
vt 0.182036 0.277879
vt 0.198419 0.253049
vt 0.285325 0.310392
vt 0.214803 0.228219
vt 0.301708 0.285562
vt 0.231187 0.203389
vt 0.318092 0.260732
vt 0.247570 0.178559
vt 0.334476 0.235902
vt 0.263954 0.153729
vt 0.350859 0.211072
vt 0.459135 0.425078
vt 0.508286 0.350588
vt 0.491902 0.375418
vt 0.491902 0.375418
vt 0.508286 0.350588
vt 0.475519 0.400248
vt 0.367243 0.186241
vt 0.350859 0.211072
vt 0.524670 0.325758
vt 0.318092 0.260732
vt 0.529656 0.507251
vt 0.546040 0.482421
vt 0.562424 0.457591
vt 0.578807 0.432761
vt 0.595191 0.407931
vt 0.611575 0.383101
vt 0.459135 0.425078
vt 0.285325 0.310392
vt 0.301708 0.285562
vt 0.475519 0.400248
vt 0.334476 0.235902
vt 0.524670 0.325758
vt 0.541053 0.300927
vt 0.557437 0.276097
vt 0.541053 0.300927
vt 0.383627 0.161411
vt 0.367243 0.186241
vt 0.442751 0.449908
vt 0.268941 0.335222
vt 0.285325 0.310392
vt 0.301708 0.285562
vt 0.318092 0.260732
vt 0.334476 0.235902
vt 0.350859 0.211072
vt 0.459135 0.425078
vt 0.508286 0.350588
vt 0.508286 0.350588
vt 0.491902 0.375418
vt 0.491902 0.375418
vt 0.475519 0.400248
vt 0.350859 0.211072
vt 0.367243 0.186241
vt 0.524670 0.325758
vt 0.318092 0.260732
vt 0.459135 0.425078
vt 0.475519 0.400248
vt 0.301708 0.285562
vt 0.285325 0.310392
vt 0.334476 0.235902
vt 0.524670 0.325758
vt 0.541053 0.300927
vn 0.0000 -1.0000 0.0000
vn 0.9884 0.0000 0.1517
vn 0.0000 0.0000 -1.0000
vn 0.0000 0.9302 0.3670
vn 0.0000 0.0000 1.0000
vn 0.0000 0.9302 -0.3670
vn 0.0000 1.0000 0.0000
vn 0.9884 -0.0000 -0.1517
vn -0.1415 -0.9899 0.0000
vn 1.0000 -0.0000 0.0000
vn 0.2906 0.9569 0.0000
vn 0.0892 0.0000 -0.9960
vn 0.0892 -0.0000 0.9960
vn 0.4086 0.0000 -0.9127
vn -0.2594 0.0000 -0.9658
vn -0.2594 -0.0000 0.9658
vn 0.4086 -0.0000 0.9127
vn -0.9884 0.0000 0.1517
vn -0.9884 0.0000 -0.1517
vn 0.1415 -0.9899 0.0000
vn -1.0000 0.0000 0.0000
vn -0.2906 0.9569 0.0000
vn -0.0892 0.0000 -0.9960
vn -0.0892 -0.0000 0.9960
vn -0.4086 0.0000 -0.9127
vn 0.2594 0.0000 -0.9658
vn 0.2594 -0.0000 0.9658
vn -0.4086 -0.0000 0.9127
usemtl Material-4
s off
f 72/1/1 11/2/1 4/3/1 59/4/1
f 11/2/2 10/5/2 3/6/2 4/3/2
f 57/7/3 60/8/3 1/9/3 2/10/3
f 10/5/4 66/11/4 58/12/4 3/6/4
f 4/3/5 3/6/5 58/13/5 59/14/5
f 1/9/6 60/15/6 61/16/6 5/17/6
f 5/17/7 61/16/7 62/18/7 6/19/7
f 6/19/7 62/18/7 63/20/7 7/21/7
f 7/21/7 63/20/7 64/22/7 8/23/7
f 8/23/7 64/22/7 65/24/7 9/25/7
f 9/25/7 65/24/7 66/11/7 10/5/7
f 2/10/8 1/9/8 5/17/8 16/26/8
f 13/27/9 14/28/9 26/29/9 25/30/9
f 15/31/10 6/19/10 7/21/10 14/28/10
f 9/25/11 10/5/11 22/32/11 21/33/11
f 13/27/10 8/23/10 9/25/10 12/34/10
f 14/28/12 7/21/12 19/35/12 26/29/12
f 57/36/1 2/10/1 16/26/1 67/37/1
f 67/37/1 16/26/1 15/31/1 68/38/1
f 68/38/1 15/31/1 14/28/1 69/39/1
f 69/39/1 14/28/1 13/27/1 70/40/1
f 70/40/1 13/27/1 12/34/1 71/41/1
f 71/41/1 12/34/1 11/2/1 72/1/1
f 28/42/10 17/43/10 18/44/10 27/45/10
f 26/29/10 19/35/10 20/46/10 25/30/10
f 24/47/10 21/33/10 22/32/10 23/48/10
f 8/23/13 13/27/13 25/30/13 20/46/13
f 16/26/14 5/17/14 17/43/14 28/42/14
f 7/21/11 8/23/11 20/46/11 19/35/11
f 12/34/15 9/25/15 21/33/15 24/47/15
f 11/2/9 12/34/9 24/47/9 23/48/9
f 6/19/16 15/31/16 27/45/16 18/44/16
f 15/31/9 16/26/9 28/42/9 27/45/9
f 10/5/17 11/2/17 23/48/17 22/32/17
f 5/17/11 6/19/11 18/44/11 17/43/11
f 72/1/1 59/4/1 32/49/1 39/50/1
f 39/50/18 32/49/18 31/51/18 38/52/18
f 57/7/3 30/53/3 29/54/3 60/8/3
f 38/52/4 31/51/4 58/12/4 66/11/4
f 32/49/5 59/14/5 58/13/5 31/51/5
f 29/54/6 33/55/6 61/16/6 60/15/6
f 33/55/7 34/56/7 62/18/7 61/16/7
f 34/56/7 35/57/7 63/20/7 62/18/7
f 35/57/7 36/58/7 64/22/7 63/20/7
f 36/58/7 37/59/7 65/24/7 64/22/7
f 37/59/7 38/52/7 66/11/7 65/24/7
f 30/53/19 44/60/19 33/55/19 29/54/19
f 41/61/20 53/62/20 54/63/20 42/64/20
f 43/65/21 42/64/21 35/57/21 34/56/21
f 37/59/22 49/66/22 50/67/22 38/52/22
f 41/61/21 40/68/21 37/59/21 36/58/21
f 42/64/23 54/63/23 47/69/23 35/57/23
f 57/36/1 67/37/1 44/60/1 30/53/1
f 67/37/1 68/38/1 43/65/1 44/60/1
f 68/38/1 69/39/1 42/64/1 43/65/1
f 69/39/1 70/40/1 41/61/1 42/64/1
f 70/40/1 71/41/1 40/68/1 41/61/1
f 71/41/1 72/1/1 39/50/1 40/68/1
f 56/70/21 55/71/21 46/72/21 45/73/21
f 54/63/21 53/62/21 48/74/21 47/69/21
f 52/75/21 51/76/21 50/67/21 49/66/21
f 36/58/24 48/74/24 53/62/24 41/61/24
f 44/60/25 56/70/25 45/73/25 33/55/25
f 35/57/22 47/69/22 48/74/22 36/58/22
f 40/68/26 52/75/26 49/66/26 37/59/26
f 39/50/20 51/76/20 52/75/20 40/68/20
f 34/56/27 46/72/27 55/71/27 43/65/27
f 43/65/20 55/71/20 56/70/20 44/60/20
f 38/52/28 50/67/28 51/76/28 39/50/28
f 33/55/22 45/73/22 46/72/22 34/56/22
