# Blender v2.90.1 OBJ File: 'LowPoly Spaceships.blend'
# www.blender.org
mtllib m4-part02.mtl
o Body-2.002_Cube.024
v 3.200000 1.785693 -6.097281
v 3.200000 -1.785693 -6.097281
v 3.200000 1.310048 6.097281
v 3.200000 -1.401964 6.097281
v 3.200000 1.785693 -6.097281
v 3.200000 -1.785693 -6.097281
v 3.200000 1.310048 6.097281
v 3.200000 -1.401964 6.097281
v 5.456050 1.785693 -4.580965
v 5.456050 -1.785693 -4.580965
v 5.456050 1.310048 0.458953
v 5.456050 -1.401964 0.458953
v 3.200000 1.785693 -4.436184
v 3.200000 1.142536 -1.997272
v 3.200000 1.142536 0.441641
v 3.200000 1.785693 2.880553
v 3.200000 -1.785693 2.880553
v 3.200000 -1.785693 0.441641
v 3.200000 -1.449505 -1.997272
v 3.200000 -1.449505 -4.436184
v 3.200000 1.785693 -4.436184
v 3.200000 1.142536 -1.997272
v 3.200000 1.142536 0.441641
v 3.200000 1.785693 2.880553
v 3.200000 -1.785693 2.880553
v 3.200000 -1.785693 0.441641
v 3.200000 -1.449505 -1.997272
v 3.200000 -1.449505 -4.436184
v 5.456050 1.785693 -3.894445
v 5.041250 1.142536 -2.886462
v 5.041250 1.142536 -1.878479
v 5.456050 1.310048 -0.870495
v 5.456050 -1.785693 -0.870495
v 5.041250 -1.785693 -1.878479
v 5.041250 -1.449505 -2.886462
v 5.456050 -1.449505 -3.894446
v -3.200000 1.785693 -6.097281
v -3.200000 -1.785693 -6.097281
v -3.200000 1.310048 6.097281
v -3.200000 -1.401964 6.097281
v -3.200000 1.785693 -6.097281
v -3.200000 -1.785693 -6.097281
v -3.200000 1.310048 6.097281
v -3.200000 -1.401964 6.097281
v -5.456050 1.785693 -4.580965
v -5.456050 -1.785693 -4.580965
v -5.456050 1.310048 0.458953
v -5.456050 -1.401964 0.458953
v -3.200000 1.785693 -4.436184
v -3.200000 1.142536 -1.997272
v -3.200000 1.142536 0.441641
v -3.200000 1.785693 2.880553
v -3.200000 -1.785693 2.880553
v -3.200000 -1.785693 0.441641
v -3.200000 -1.449505 -1.997272
v -3.200000 -1.449505 -4.436184
v -3.200000 1.785693 -4.436184
v -3.200000 1.142536 -1.997272
v -3.200000 1.142536 0.441641
v -3.200000 1.785693 2.880553
v -3.200000 -1.785693 2.880553
v -3.200000 -1.785693 0.441641
v -3.200000 -1.449505 -1.997272
v -3.200000 -1.449505 -4.436184
v -5.456050 1.785693 -3.894445
v -5.041250 1.142536 -2.886462
v -5.041250 1.142536 -1.878479
v -5.456050 1.310048 -0.870495
v -5.456050 -1.785693 -0.870495
v -5.041250 -1.785693 -1.878479
v -5.041250 -1.449505 -2.886462
v -5.456050 -1.449505 -3.894446
v 0.000000 -1.785693 -6.097281
v 0.000000 1.310048 6.097281
v 0.000000 -1.401964 6.097281
v 0.000000 1.785693 -6.097281
v 0.000000 1.785693 -4.436184
v 0.000000 1.142536 -1.997272
v 0.000000 1.142536 0.441641
v 0.000000 1.785693 2.880553
v 0.000000 -1.449505 -4.436184
v 0.000000 -1.449505 -1.997272
v 0.000000 -1.785693 0.441641
v 0.000000 -1.785693 2.880553
vt 0.250000 0.684054
vt 0.375000 0.684054
vt 0.375000 0.750000
vt 0.250000 0.750000
vt 0.625000 0.684054
vt 0.625000 0.750000
vt 0.625000 0.750000
vt 0.625000 0.684054
vt 0.375000 0.375000
vt 0.625000 0.375000
vt 0.625000 0.500000
vt 0.375000 0.500000
vt 0.750000 0.684054
vt 0.750000 0.750000
vt 0.625000 0.875000
vt 0.375000 0.875000
vt 0.625000 0.750000
vt 0.625000 0.684054
vt 0.625000 0.500000
vt 0.375000 0.500000
vt 0.375000 0.534054
vt 0.375000 0.534054
vt 0.375000 0.750000
vt 0.375000 0.684054
vt 0.375000 0.750000
vt 0.625000 0.500000
vt 0.375000 0.500000
vt 0.375000 0.534054
vt 0.375000 0.684054
vt 0.375000 0.634054
vt 0.375000 0.634054
vt 0.375000 0.584054
vt 0.375000 0.584054
vt 0.625000 0.534054
vt 0.625000 0.584054
vt 0.625000 0.634054
vt 0.375000 0.634054
vt 0.375000 0.584054
vt 0.625000 0.534054
vt 0.625000 0.584054
vt 0.625000 0.634054
vt 0.750000 0.500000
vt 0.750000 0.534054
vt 0.625000 0.534054
vt 0.750000 0.584054
vt 0.625000 0.584054
vt 0.750000 0.634054
vt 0.625000 0.634054
vt 0.250000 0.500000
vt 0.250000 0.534054
vt 0.250000 0.584054
vt 0.250000 0.634054
vt 0.375000 0.750000
vt 0.375000 0.684054
vt 0.625000 0.684054
vt 0.625000 0.684054
vt 0.625000 0.750000
vt 0.625000 0.750000
vt 0.375000 0.500000
vt 0.625000 0.500000
vt 0.625000 0.684054
vt 0.625000 0.750000
vt 0.375000 0.500000
vt 0.625000 0.500000
vt 0.375000 0.534054
vt 0.375000 0.534054
vt 0.375000 0.750000
vt 0.375000 0.684054
vt 0.375000 0.750000
vt 0.375000 0.500000
vt 0.625000 0.500000
vt 0.375000 0.534054
vt 0.375000 0.684054
vt 0.375000 0.634054
vt 0.375000 0.634054
vt 0.375000 0.584054
vt 0.375000 0.584054
vt 0.625000 0.534054
vt 0.625000 0.584054
vt 0.625000 0.634054
vt 0.375000 0.634054
vt 0.375000 0.584054
vt 0.625000 0.534054
vt 0.625000 0.584054
vt 0.625000 0.634054
vt 0.625000 0.534054
vt 0.625000 0.584054
vt 0.625000 0.634054
vn 0.0000 -0.9930 0.1185
vn 0.0000 0.0000 1.0000
vn 0.0000 0.0000 -1.0000
vn 0.0000 0.9892 0.1463
vn 0.3060 0.9469 0.0991
vn 1.0000 0.0000 0.0000
vn 0.5578 0.0000 -0.8300
vn -0.1246 -0.9539 0.2732
vn 0.9284 0.0000 0.3715
vn 0.3273 -0.9317 0.1573
vn 0.0000 -1.0000 0.0000
vn -0.1646 -0.9681 -0.1888
vn 0.9248 0.0000 0.3806
vn 0.9248 -0.0000 -0.3806
vn 0.0000 1.0000 0.0000
vn 0.0299 0.9353 0.3526
vn -0.1895 0.9606 -0.2031
vn 0.0000 0.9669 0.2550
vn 0.0000 0.9669 -0.2550
vn 0.0000 -0.9801 0.1984
vn 0.0000 -0.9906 -0.1366
vn -0.3060 0.9469 0.0991
vn -1.0000 0.0000 0.0000
vn -0.5578 0.0000 -0.8300
vn 0.1246 -0.9539 0.2732
vn -0.9284 0.0000 0.3715
vn -0.3273 -0.9317 0.1573
vn 0.1646 -0.9681 -0.1888
vn -0.9248 0.0000 0.3806
vn -0.9248 -0.0000 -0.3806
vn -0.0299 0.9353 0.3526
vn 0.1895 0.9606 -0.2031
usemtl Material-4
s off
f 84/1/1 17/2/1 4/3/1 75/4/1
f 16/5/2 3/6/2 7/7/2 24/8/2
f 73/9/3 76/10/3 1/11/3 2/12/3
f 16/5/4 80/13/4 74/14/4 3/6/4
f 4/3/2 3/6/2 74/15/2 75/16/2
f 24/8/5 7/7/5 11/17/5 32/18/5
f 2/12/2 1/11/2 5/19/2 6/20/2
f 20/21/2 2/12/2 6/20/2 28/22/2
f 3/6/2 4/3/2 8/23/2 7/7/2
f 33/24/6 32/18/6 11/17/6 12/25/6
f 6/20/7 5/19/7 9/26/7 10/27/7
f 28/22/8 6/20/8 10/27/8 36/28/8
f 7/7/9 8/23/9 12/25/9 11/17/9
f 8/23/10 25/29/10 33/24/10 12/25/10
f 25/29/11 26/30/11 34/31/11 33/24/11
f 26/30/12 27/32/12 35/33/12 34/31/12
f 27/32/11 28/22/11 36/28/11 35/33/11
f 10/27/6 9/26/6 29/34/6 36/28/6
f 36/28/13 29/34/13 30/35/13 35/33/13
f 35/33/6 30/35/6 31/36/6 34/31/6
f 34/31/14 31/36/14 32/18/14 33/24/14
f 4/3/2 17/2/2 25/29/2 8/23/2
f 17/2/2 18/37/2 26/30/2 25/29/2
f 18/37/2 19/38/2 27/32/2 26/30/2
f 19/38/2 20/21/2 28/22/2 27/32/2
f 5/19/15 21/39/15 29/34/15 9/26/15
f 21/39/16 22/40/16 30/35/16 29/34/16
f 22/40/15 23/41/15 31/36/15 30/35/15
f 23/41/17 24/8/17 32/18/17 31/36/17
f 1/11/15 76/42/15 77/43/15 13/44/15
f 13/44/18 77/43/18 78/45/18 14/46/18
f 14/46/15 78/45/15 79/47/15 15/48/15
f 15/48/19 79/47/19 80/13/19 16/5/19
f 1/11/2 13/44/2 21/39/2 5/19/2
f 13/44/2 14/46/2 22/40/2 21/39/2
f 14/46/2 15/48/2 23/41/2 22/40/2
f 15/48/2 16/5/2 24/8/2 23/41/2
f 73/49/20 2/12/20 20/21/20 81/50/20
f 81/50/11 20/21/11 19/38/11 82/51/11
f 82/51/21 19/38/21 18/37/21 83/52/21
f 83/52/11 18/37/11 17/2/11 84/1/11
f 84/1/1 75/4/1 40/53/1 53/54/1
f 52/55/2 60/56/2 43/57/2 39/58/2
f 73/9/3 38/59/3 37/60/3 76/10/3
f 52/55/4 39/58/4 74/14/4 80/13/4
f 40/53/2 75/16/2 74/15/2 39/58/2
f 60/56/22 68/61/22 47/62/22 43/57/22
f 38/59/2 42/63/2 41/64/2 37/60/2
f 56/65/2 64/66/2 42/63/2 38/59/2
f 39/58/2 43/57/2 44/67/2 40/53/2
f 69/68/23 48/69/23 47/62/23 68/61/23
f 42/63/24 46/70/24 45/71/24 41/64/24
f 64/66/25 72/72/25 46/70/25 42/63/25
f 43/57/26 47/62/26 48/69/26 44/67/26
f 44/67/27 48/69/27 69/68/27 61/73/27
f 61/73/11 69/68/11 70/74/11 62/75/11
f 62/75/28 70/74/28 71/76/28 63/77/28
f 63/77/11 71/76/11 72/72/11 64/66/11
f 46/70/23 72/72/23 65/78/23 45/71/23
f 72/72/29 71/76/29 66/79/29 65/78/29
f 71/76/23 70/74/23 67/80/23 66/79/23
f 70/74/30 69/68/30 68/61/30 67/80/30
f 40/53/2 44/67/2 61/73/2 53/54/2
f 53/54/2 61/73/2 62/75/2 54/81/2
f 54/81/2 62/75/2 63/77/2 55/82/2
f 55/82/2 63/77/2 64/66/2 56/65/2
f 41/64/15 45/71/15 65/78/15 57/83/15
f 57/83/31 65/78/31 66/79/31 58/84/31
f 58/84/15 66/79/15 67/80/15 59/85/15
f 59/85/32 67/80/32 68/61/32 60/56/32
f 37/60/15 49/86/15 77/43/15 76/42/15
f 49/86/18 50/87/18 78/45/18 77/43/18
f 50/87/15 51/88/15 79/47/15 78/45/15
f 51/88/19 52/55/19 80/13/19 79/47/19
f 37/60/2 41/64/2 57/83/2 49/86/2
f 49/86/2 57/83/2 58/84/2 50/87/2
f 50/87/2 58/84/2 59/85/2 51/88/2
f 51/88/2 59/85/2 60/56/2 52/55/2
f 73/49/20 81/50/20 56/65/20 38/59/20
f 81/50/11 82/51/11 55/82/11 56/65/11
f 82/51/21 83/52/21 54/81/21 55/82/21
f 83/52/11 84/1/11 53/54/11 54/81/11
