# Blender v2.90.1 OBJ File: 'LowPoly Spaceships.blend'
# www.blender.org
mtllib m3-part07.mtl
o Spike.003_Cube.044
v 0.696923 -0.526136 -4.877825
v 0.696923 0.526136 -4.877825
v 0.696923 -0.526136 4.877825
v 0.696923 0.526136 4.877825
v 0.498472 -0.275811 -2.964847
v 0.498472 -0.275811 -1.431325
v 0.696923 -0.526136 0.102197
v 0.498472 -0.275811 1.635719
v 0.498472 -0.275811 3.169241
v 0.498472 0.275811 3.169241
v 0.498472 0.275811 1.635719
v 0.696923 0.526136 0.102197
v 0.498472 0.275811 -1.431325
v 0.498472 0.275811 -2.964847
v -0.696923 -0.526136 -4.877825
v -0.696923 0.526136 -4.877825
v -0.696923 -0.526136 4.877825
v -0.696923 0.526136 4.877825
v -0.498472 -0.275811 -2.964847
v -0.498472 -0.275811 -1.431325
v -0.696923 -0.526136 0.102197
v -0.498472 -0.275811 1.635719
v -0.498472 -0.275811 3.169241
v -0.498472 0.275811 3.169241
v -0.498472 0.275811 1.635719
v -0.696923 0.526136 0.102197
v -0.498472 0.275811 -1.431325
v -0.498472 0.275811 -2.964847
v 0.000000 0.526136 -4.877825
v 0.000000 -0.526136 4.877825
v 0.000000 0.526136 4.877825
v 0.000000 -0.526136 -4.877825
v 0.000000 -0.275811 -2.964847
v 0.000000 -0.275811 -1.431325
v 0.000000 -0.526136 0.102197
v 0.000000 -0.275811 1.635719
v 0.000000 -0.275811 3.169241
v 0.000000 0.275811 -2.964847
v 0.000000 0.275811 -1.431325
v 0.000000 0.526136 0.102197
v 0.000000 0.275811 1.635719
v 0.000000 0.275811 3.169241
v 0.000000 0.000000 7.458528
vt 0.250000 0.710952
vt 0.250000 0.750000
vt 0.375000 0.750000
vt 0.375000 0.710952
vt 0.625000 0.750000
vt 0.625000 0.710952
vt 0.375000 0.375000
vt 0.375000 0.500000
vt 0.625000 0.500000
vt 0.625000 0.375000
vt 0.750000 0.750000
vt 0.750000 0.710952
vt 0.375000 0.750000
vt 0.625000 0.544286
vt 0.750000 0.544286
vt 0.750000 0.500000
vt 0.625000 0.585952
vt 0.750000 0.585952
vt 0.625000 0.627619
vt 0.750000 0.627619
vt 0.625000 0.669285
vt 0.750000 0.669285
vt 0.375000 0.544286
vt 0.375000 0.585952
vt 0.375000 0.627619
vt 0.375000 0.669286
vt 0.250000 0.500000
vt 0.250000 0.544286
vt 0.250000 0.585952
vt 0.250000 0.627619
vt 0.250000 0.669286
vt 0.625000 0.750000
vt 0.250000 0.750000
vt 0.375000 0.710952
vt 0.375000 0.750000
vt 0.625000 0.710952
vt 0.625000 0.750000
vt 0.625000 0.500000
vt 0.375000 0.500000
vt 0.625000 0.544286
vt 0.625000 0.585952
vt 0.625000 0.627619
vt 0.625000 0.669285
vt 0.375000 0.544286
vt 0.375000 0.585952
vt 0.375000 0.627619
vt 0.375000 0.669286
vn 0.0000 0.9894 -0.1450
vn 0.9933 0.0000 -0.1154
vn 0.0000 0.0000 -1.0000
vn 0.0000 -0.9894 -0.1450
vn 0.9654 0.0000 0.2607
vn 0.0000 -0.9915 0.1297
vn 0.0000 -1.0000 0.0000
vn 0.0000 -0.9869 -0.1611
vn 0.0000 -0.9869 0.1611
vn 0.9947 0.0000 0.1032
vn 1.0000 0.0000 0.0000
vn 0.9917 -0.0000 -0.1283
vn 0.9917 0.0000 0.1283
vn 0.0000 0.9915 0.1297
vn 0.0000 1.0000 0.0000
vn -0.0000 0.9869 -0.1611
vn 0.0000 0.9869 0.1611
vn 0.0000 -0.9798 0.1998
vn 0.0000 0.9798 0.1998
vn -0.9933 0.0000 -0.1154
vn -0.9654 0.0000 0.2607
vn -0.9947 0.0000 0.1032
vn -1.0000 0.0000 0.0000
vn -0.9917 -0.0000 -0.1283
vn -0.9917 0.0000 0.1283
usemtl Material-3
s off
f 42/1/1 31/2/1 4/3/1 10/4/1
f 10/4/2 4/3/2 3/5/2 9/6/2
f 29/7/3 2/8/3 1/9/3 32/10/3
f 9/6/4 3/5/4 30/11/4 37/12/4
f 4/3/5 43/13/5 3/5/5
f 1/9/6 5/14/6 33/15/6 32/16/6
f 5/14/7 6/17/7 34/18/7 33/15/7
f 6/17/8 7/19/8 35/20/8 34/18/8
f 7/19/9 8/21/9 36/22/9 35/20/9
f 8/21/7 9/6/7 37/12/7 36/22/7
f 2/8/10 14/23/10 5/14/10 1/9/10
f 14/23/11 13/24/11 6/17/11 5/14/11
f 13/24/12 12/25/12 7/19/12 6/17/12
f 12/25/13 11/26/13 8/21/13 7/19/13
f 11/26/11 10/4/11 9/6/11 8/21/11
f 29/27/14 38/28/14 14/23/14 2/8/14
f 38/28/15 39/29/15 13/24/15 14/23/15
f 39/29/16 40/30/16 12/25/16 13/24/16
f 40/30/17 41/31/17 11/26/17 12/25/17
f 41/31/15 42/1/15 10/4/15 11/26/15
f 3/5/18 43/32/18 30/11/18
f 31/2/19 43/33/19 4/3/19
f 42/1/1 24/34/1 18/35/1 31/2/1
f 24/34/20 23/36/20 17/37/20 18/35/20
f 29/7/3 32/10/3 15/38/3 16/39/3
f 23/36/4 37/12/4 30/11/4 17/37/4
f 18/35/21 17/37/21 43/13/21
f 15/38/6 32/16/6 33/15/6 19/40/6
f 19/40/7 33/15/7 34/18/7 20/41/7
f 20/41/8 34/18/8 35/20/8 21/42/8
f 21/42/9 35/20/9 36/22/9 22/43/9
f 22/43/7 36/22/7 37/12/7 23/36/7
f 16/39/22 15/38/22 19/40/22 28/44/22
f 28/44/23 19/40/23 20/41/23 27/45/23
f 27/45/24 20/41/24 21/42/24 26/46/24
f 26/46/25 21/42/25 22/43/25 25/47/25
f 25/47/23 22/43/23 23/36/23 24/34/23
f 29/27/14 16/39/14 28/44/14 38/28/14
f 38/28/15 28/44/15 27/45/15 39/29/15
f 39/29/16 27/45/16 26/46/16 40/30/16
f 40/30/17 26/46/17 25/47/17 41/31/17
f 41/31/15 25/47/15 24/34/15 42/1/15
f 17/37/18 30/11/18 43/32/18
f 31/2/19 18/35/19 43/33/19
