# Blender v2.90.1 OBJ File: 'LowPoly Spaceships.blend'
# www.blender.org
mtllib m3-part03.mtl
o Body-3.003_Cube.036
v 3.842752 1.127159 -7.049926
v 3.842752 -1.127159 -7.049926
v 3.842752 1.127159 5.144636
v 3.842752 -1.127159 5.144636
v 4.969862 1.728578 -6.152854
v 4.969862 1.728578 -4.797903
v 3.842752 1.127159 -3.442952
v 4.969862 1.728578 -2.088001
v 4.969862 1.728578 -0.733049
v 3.842752 1.127159 0.621902
v 4.969862 1.728578 1.976854
v 4.969862 1.728578 3.331805
v 4.969862 -1.728578 3.331804
v 4.969862 -1.728578 1.976853
v 3.842752 -1.127159 0.621902
v 4.969862 -1.728578 -0.733050
v 4.969862 -1.728578 -2.088001
v 3.842752 -1.127159 -3.442952
v 4.969862 -1.728578 -4.797904
v 4.969862 -1.728578 -6.152855
v 3.842752 1.127159 6.740009
v 3.842752 -1.127159 6.740009
v -3.842752 1.127159 -7.049926
v -3.842752 -1.127159 -7.049926
v -3.842752 1.127159 5.144636
v -3.842752 -1.127159 5.144636
v -4.969862 1.728578 -6.152854
v -4.969862 1.728578 -4.797903
v -3.842752 1.127159 -3.442952
v -4.969862 1.728578 -2.088001
v -4.969862 1.728578 -0.733049
v -3.842752 1.127159 0.621902
v -4.969862 1.728578 1.976854
v -4.969862 1.728578 3.331805
v -4.969862 -1.728578 3.331804
v -4.969862 -1.728578 1.976853
v -3.842752 -1.127159 0.621902
v -4.969862 -1.728578 -0.733050
v -4.969862 -1.728578 -2.088001
v -3.842752 -1.127159 -3.442952
v -4.969862 -1.728578 -4.797904
v -4.969862 -1.728578 -6.152855
v -3.842752 1.127159 6.740009
v -3.842752 -1.127159 6.740009
v 0.000000 -1.127159 -7.049926
v 0.000000 1.127159 5.144636
v 0.000000 -1.127159 5.144636
v 0.000000 1.127159 -7.049926
v 0.000000 1.728578 -6.152854
v 0.000000 1.728578 -4.797903
v 0.000000 1.127159 -3.442952
v 0.000000 1.728578 -2.088001
v 0.000000 1.728578 -0.733049
v 0.000000 1.127159 0.621902
v 0.000000 1.728578 1.976854
v 0.000000 1.728578 3.331805
v 0.000000 -1.728578 -6.152854
v 0.000000 -1.728578 -4.797903
v 0.000000 -1.127159 -3.442952
v 0.000000 -1.728578 -2.088001
v 0.000000 -1.728578 -0.733049
v 0.000000 -1.127159 0.621902
v 0.000000 -1.728578 1.976854
v 0.000000 -1.728578 3.331805
v 0.000000 -1.127159 6.740009
v 0.000000 1.127159 6.740009
vt 0.022287 0.946135
vt 0.164076 0.866634
vt 0.187713 0.908790
vt 0.045925 0.988291
vt 0.447653 0.707631
vt 0.471290 0.749787
vt -0.050791 0.483425
vt 0.232785 0.324422
vt 0.312287 0.466210
vt 0.028710 0.625213
vt 0.589441 0.628129
vt 0.613078 0.670285
vt 0.613078 0.670285
vt 0.471290 0.749787
vt 0.454075 0.386709
vt 0.465772 0.407569
vt 0.323984 0.487071
vt 0.483439 0.439078
vt 0.341651 0.518579
vt 0.501106 0.470587
vt 0.359318 0.550088
vt 0.518773 0.502095
vt 0.376985 0.581597
vt 0.536440 0.533604
vt 0.394652 0.613105
vt 0.554107 0.565112
vt 0.412319 0.644614
vt 0.571774 0.596621
vt 0.429986 0.676122
vt 0.040407 0.646074
vt 0.058074 0.677582
vt 0.075741 0.709091
vt 0.093408 0.740599
vt 0.111075 0.772108
vt 0.128742 0.803617
vt 0.146409 0.835125
vt -0.113078 0.704715
vt -0.101382 0.725575
vt -0.083715 0.757084
vt -0.066048 0.788592
vt -0.048380 0.820101
vt -0.030714 0.851609
vt -0.013047 0.883118
vt 0.004620 0.914627
vt 0.187713 0.908790
vt 0.550791 0.891575
vt 0.267215 1.050578
vt 0.045925 0.988291
vt 0.187713 0.908790
vt 0.164076 0.866634
vt 0.471290 0.749787
vt 0.447653 0.707631
vt 0.028710 0.625213
vt 0.312287 0.466210
vt 0.471290 0.749787
vt 0.323984 0.487071
vt 0.341651 0.518579
vt 0.359318 0.550088
vt 0.376985 0.581597
vt 0.394652 0.613105
vt 0.412319 0.644614
vt 0.429986 0.676122
vt 0.040407 0.646074
vt 0.058074 0.677582
vt 0.075741 0.709091
vt 0.093408 0.740599
vt 0.111075 0.772108
vt 0.128742 0.803617
vt 0.146409 0.835125
vt 0.187713 0.908790
vn 0.0000 -0.9491 0.3149
vn 0.8492 -0.0000 0.5280
vn 0.0000 0.0000 -1.0000
vn 0.0000 0.9491 0.3149
vn 0.0000 1.0000 0.0000
vn 0.0000 0.8306 -0.5569
vn 0.0000 0.9140 0.4057
vn 0.0000 0.9140 -0.4057
vn 0.6227 0.0000 -0.7824
vn 1.0000 -0.0000 0.0000
vn 0.7688 -0.0000 0.6395
vn 0.7688 0.0000 -0.6395
vn -0.0000 -0.8306 -0.5569
vn 0.0000 -1.0000 0.0000
vn 0.0000 -0.9140 0.4057
vn -0.0000 -0.9140 -0.4057
vn 0.0000 0.0000 1.0000
vn -0.8492 -0.0000 0.5280
vn -0.6227 0.0000 -0.7824
vn -1.0000 0.0000 0.0000
vn -0.7688 -0.0000 0.6395
vn -0.7688 0.0000 -0.6395
usemtl Material-3
s off
f 64/1/1 13/2/1 4/3/1 47/4/1
f 13/2/2 12/5/2 3/6/2 4/3/2
f 45/7/3 48/8/3 1/9/3 2/10/3
f 12/5/4 56/11/4 46/12/4 3/6/4
f 3/6/5 46/12/5 66/13/5 21/14/5
f 1/9/6 48/15/6 49/16/6 5/17/6
f 5/17/5 49/16/5 50/18/5 6/19/5
f 6/19/7 50/18/7 51/20/7 7/21/7
f 7/21/8 51/20/8 52/22/8 8/23/8
f 8/23/5 52/22/5 53/24/5 9/25/5
f 9/25/7 53/24/7 54/26/7 10/27/7
f 10/27/8 54/26/8 55/28/8 11/29/8
f 11/29/5 55/28/5 56/11/5 12/5/5
f 2/10/9 1/9/9 5/17/9 20/30/9
f 20/30/10 5/17/10 6/19/10 19/31/10
f 19/31/11 6/19/11 7/21/11 18/32/11
f 18/32/12 7/21/12 8/23/12 17/33/12
f 17/33/10 8/23/10 9/25/10 16/34/10
f 16/34/11 9/25/11 10/27/11 15/35/11
f 15/35/12 10/27/12 11/29/12 14/36/12
f 14/36/10 11/29/10 12/5/10 13/2/10
f 45/37/13 2/10/13 20/30/13 57/38/13
f 57/38/14 20/30/14 19/31/14 58/39/14
f 58/39/15 19/31/15 18/32/15 59/40/15
f 59/40/16 18/32/16 17/33/16 60/41/16
f 60/41/14 17/33/14 16/34/14 61/42/14
f 61/42/15 16/34/15 15/35/15 62/43/15
f 62/43/16 15/35/16 14/36/16 63/44/16
f 63/44/14 14/36/14 13/2/14 64/1/14
f 22/45/17 21/14/17 66/46/17 65/47/17
f 47/4/14 4/3/14 22/45/14 65/48/14
f 4/3/10 3/6/10 21/14/10 22/45/10
f 64/1/1 47/4/1 26/49/1 35/50/1
f 35/50/18 26/49/18 25/51/18 34/52/18
f 45/7/3 24/53/3 23/54/3 48/8/3
f 34/52/4 25/51/4 46/12/4 56/11/4
f 25/51/5 43/55/5 66/13/5 46/12/5
f 23/54/6 27/56/6 49/16/6 48/15/6
f 27/56/5 28/57/5 50/18/5 49/16/5
f 28/57/7 29/58/7 51/20/7 50/18/7
f 29/58/8 30/59/8 52/22/8 51/20/8
f 30/59/5 31/60/5 53/24/5 52/22/5
f 31/60/7 32/61/7 54/26/7 53/24/7
f 32/61/8 33/62/8 55/28/8 54/26/8
f 33/62/5 34/52/5 56/11/5 55/28/5
f 24/53/19 42/63/19 27/56/19 23/54/19
f 42/63/20 41/64/20 28/57/20 27/56/20
f 41/64/21 40/65/21 29/58/21 28/57/21
f 40/65/22 39/66/22 30/59/22 29/58/22
f 39/66/20 38/67/20 31/60/20 30/59/20
f 38/67/21 37/68/21 32/61/21 31/60/21
f 37/68/22 36/69/22 33/62/22 32/61/22
f 36/69/20 35/50/20 34/52/20 33/62/20
f 45/37/13 57/38/13 42/63/13 24/53/13
f 57/38/14 58/39/14 41/64/14 42/63/14
f 58/39/15 59/40/15 40/65/15 41/64/15
f 59/40/16 60/41/16 39/66/16 40/65/16
f 60/41/14 61/42/14 38/67/14 39/66/14
f 61/42/15 62/43/15 37/68/15 38/67/15
f 62/43/16 63/44/16 36/69/16 37/68/16
f 63/44/14 64/1/14 35/50/14 36/69/14
f 44/70/17 65/47/17 66/46/17 43/55/17
f 47/4/14 65/48/14 44/70/14 26/49/14
f 26/49/20 44/70/20 43/55/20 25/51/20
