# Blender v2.90.1 OBJ File: 'LowPoly Spaceships.blend'
# www.blender.org
mtllib bullet.mtl
o Bullet_Cube
v -0.258352 -0.258352 0.421552
v -0.258352 0.258352 0.421552
v -0.258352 -0.258352 -0.409914
v -0.258352 0.258352 -0.409914
v 0.258352 -0.258352 0.421552
v 0.258352 0.258352 0.421552
v 0.258352 -0.258352 -0.409914
v 0.258352 0.258352 -0.409914
v 0.000000 -0.378352 -0.409914
v 0.000000 0.378352 -0.409914
v 0.000000 -0.378352 0.421552
v 0.000000 0.378352 0.421552
v -0.378352 0.000000 0.421552
v -0.378352 0.000000 -0.409914
v 0.378352 0.000000 -0.409914
v 0.378352 0.000000 0.421552
v 0.000000 0.000000 0.735779
v 0.000000 0.000000 -0.409914
vt 0.775097 0.134207
vt 0.793039 0.126629
vt 0.808195 0.162512
vt 0.790254 0.170091
vt 0.797832 0.188032
vt 0.815774 0.180454
vt 0.823352 0.198396
vt 0.805410 0.205974
vt 0.838509 0.234279
vt 0.820567 0.241857
vt 0.828145 0.259799
vt 0.846087 0.252221
vt 0.853665 0.270163
vt 0.835724 0.277741
vt 0.769527 0.221131
vt 0.787469 0.213552
vt 0.802625 0.249436
vt 0.784683 0.257014
vt 0.841294 0.190817
vt 0.859236 0.183239
vt 0.874392 0.219123
vt 0.856450 0.226701
vt 0.751585 0.228709
vt 0.766742 0.264592
vt 0.772312 0.177669
vt 0.779890 0.195611
vt 0.810203 0.267377
vt 0.817782 0.285319
vt 0.757155 0.141785
vn -0.9069 0.4213 0.0000
vn 0.0000 0.0000 -1.0000
vn 0.9069 0.4213 0.0000
vn -0.4611 0.4611 0.7582
vn 0.4213 -0.9069 0.0000
vn -0.4213 0.9069 0.0000
vn 0.4213 0.9069 0.0000
vn -0.4213 -0.9069 0.0000
vn 0.4611 0.4611 0.7582
vn 0.4611 -0.4611 0.7582
vn -0.4611 -0.4611 0.7582
vn 0.9069 -0.4213 0.0000
vn -0.9069 -0.4213 0.0000
usemtl Material-4
s off
f 13/1/1 2/2/1 4/3/1 14/4/1
f 18/5/2 10/6/2 8/7/2 15/8/2
f 15/8/3 8/7/3 6/9/3 16/10/3
f 17/11/4 12/12/4 2/13/4 13/14/4
f 9/15/5 7/16/5 5/17/5 11/18/5
f 10/19/6 4/20/6 2/21/6 12/22/6
f 8/7/7 10/19/7 12/22/7 6/9/7
f 3/23/8 9/15/8 11/18/8 1/24/8
f 16/10/9 6/9/9 12/12/9 17/11/9
f 14/4/2 4/3/2 10/6/2 18/5/2
f 3/25/2 14/4/2 18/5/2 9/26/2
f 5/17/10 16/10/10 17/11/10 11/27/10
f 11/27/11 17/11/11 13/14/11 1/28/11
f 7/16/12 15/8/12 16/10/12 5/17/12
f 9/26/2 18/5/2 15/8/2 7/16/2
f 1/29/13 13/1/13 14/4/13 3/25/13
