# Blender v2.90.1 OBJ File: 'LowPoly Spaceships.blend'
# www.blender.org
mtllib healthbox.mtl
o HealthBox_Cube.046
v -3.017612 -2.715851 3.017612
v -3.017612 2.715851 3.017612
v -3.017612 -2.715851 -3.017612
v -3.017612 2.715851 -3.017612
v 3.017612 -2.715851 3.017612
v 3.017612 2.715851 3.017612
v 3.017612 -2.715851 -3.017612
v 3.017612 2.715851 -3.017612
v -2.560000 -2.880000 -3.200000
v -2.560000 2.880000 -3.200000
v -2.560000 -2.880000 3.200000
v -2.560000 2.880000 3.200000
v 2.560000 2.880000 -3.200000
v 2.560000 -2.880000 3.200000
v 2.560000 -2.880000 -3.200000
v 2.560000 2.880000 3.200000
v -3.200000 -2.880000 2.560000
v -3.200000 2.880000 2.560000
v 3.200000 -2.880000 2.560000
v 3.200000 2.880000 2.560000
v -2.181581 3.200000 2.181581
v -2.560000 -3.200000 2.560000
v 2.181581 3.200000 2.181581
v 2.560000 -3.200000 2.560000
v -3.200000 2.880000 -2.560000
v 3.200000 -2.880000 -2.560000
v -3.200000 -2.880000 -2.560000
v 3.200000 2.880000 -2.560000
v -2.181581 3.200000 -2.181581
v -2.560000 -3.200000 -2.560000
v 2.181580 3.200000 -2.181581
v 2.560000 -3.200000 -2.560000
v -2.560000 3.200000 -2.560000
v -2.560000 3.200000 2.560000
v 2.560000 3.200000 -2.560000
v 2.560000 3.200000 2.560000
v -2.181581 2.503684 -2.181581
v -2.181581 2.503684 2.181581
v 2.181580 2.503684 -2.181581
v 2.181581 2.503684 2.181581
v -0.480000 2.592000 1.920000
v 0.480000 2.592000 1.920000
v -0.480000 2.592000 -1.920000
v 0.480000 2.592000 -1.920000
v 1.920000 2.592000 0.480000
v 1.920000 2.592000 -0.480000
v -1.920000 2.592000 0.480000
v -1.920000 2.592000 -0.480000
vt 0.126429 0.033742
vt 0.154230 0.063859
vt 0.140677 0.076370
vt 0.112877 0.046253
vt 0.096312 0.061543
vt 0.124113 0.091660
vt 0.110560 0.104170
vt 0.082759 0.074053
vt 0.055654 0.099074
vt 0.083455 0.129191
vt 0.080443 0.131971
vt 0.052642 0.101854
vt 0.025537 0.126875
vt 0.053337 0.156992
vt 0.050326 0.159772
vt 0.022525 0.129655
vt 0.043144 0.085521
vt 0.040132 0.088301
vt 0.108475 0.156297
vt 0.111255 0.159308
vt 0.108244 0.162088
vt 0.105464 0.159077
vt 0.095965 0.142744
vt 0.092953 0.145524
vt 0.027853 0.068957
vt 0.030633 0.071968
vt 0.027622 0.074749
vt 0.024842 0.071737
vt 0.039089 0.114364
vt 0.066890 0.144481
vt 0.137666 0.079150
vt 0.109865 0.049033
vt 0.044186 0.059458
vt 0.056696 0.073011
vt 0.097007 0.116681
vt 0.109518 0.130234
vt 0.041406 0.056446
vt 0.132531 0.374966
vt 0.139279 0.382276
vt 0.139279 0.382276
vt 0.132531 0.374966
vt 0.122028 0.143786
vt 0.124808 0.146798
vt 0.069207 0.086564
vt 0.142994 0.018452
vt 0.170794 0.048569
vt 0.167783 0.051349
vt 0.139982 0.021232
vt 0.070249 0.060501
vt 0.135581 0.131276
vt 0.138361 0.134288
vt 0.123070 0.117723
vt 0.054959 0.043936
vt 0.057739 0.046948
vt 0.131968 0.389025
vt 0.140498 0.382325
vt 0.131919 0.390244
vt 0.125220 0.381714
vt 0.124000 0.381665
vt 0.132579 0.373746
vt 0.113590 0.980680
vt 0.116348 0.980680
vt 0.116348 0.983438
vt 0.113590 0.983438
vt 0.125220 0.381714
vt 0.131968 0.389025
vt 0.915656 0.981591
vt 0.917166 0.981591
vt 0.917166 0.983101
vt 0.915656 0.983101
vt 0.915656 0.981591
vt 0.917166 0.981591
vt 0.917166 0.983101
vt 0.915656 0.983101
vn -0.9289 0.0000 -0.3702
vn 0.3702 0.0000 -0.9289
vn 0.9289 0.0000 0.3702
vn -0.3702 0.0000 0.9289
vn 0.4236 -0.8007 0.4236
vn -0.4236 0.8007 0.4236
vn 0.0000 0.8944 0.4472
vn -0.4236 -0.8007 0.4236
vn 0.0000 0.0000 1.0000
vn -0.3702 0.0000 -0.9289
vn 0.3702 0.0000 0.9289
vn 0.4236 0.8007 0.4236
vn 0.0000 -0.8944 0.4472
vn 0.0000 0.0000 -1.0000
vn 0.0000 -1.0000 0.0000
vn 0.4472 0.8944 0.0000
vn -0.4472 -0.8944 0.0000
vn -0.4472 0.8944 0.0000
vn 0.4472 -0.8944 0.0000
vn 1.0000 0.0000 0.0000
vn -0.9289 0.0000 0.3702
vn 0.9289 -0.0000 -0.3702
vn 0.4236 -0.8007 -0.4236
vn -0.4236 0.8007 -0.4236
vn 0.0000 0.8944 -0.4472
vn -0.4236 -0.8007 -0.4236
vn 0.4236 0.8007 -0.4236
vn 0.0000 -0.8944 -0.4472
vn -1.0000 -0.0000 0.0000
vn 0.0000 1.0000 0.0000
usemtl Material-1
s off
f 27/1/1 25/2/1 4/3/1 3/4/1
f 15/5/2 13/6/2 8/7/2 7/8/2
f 19/9/3 20/10/3 6/11/3 5/12/3
f 11/13/4 12/14/4 2/15/4 1/16/4
f 24/17/5 19/9/5 5/12/5 14/18/5
f 34/19/6 18/20/6 2/21/6 12/22/6
f 36/23/7 34/19/7 12/22/7 16/24/7
f 17/25/8 22/26/8 11/27/8 1/28/8
f 14/29/9 16/30/9 12/14/9 11/13/9
f 3/4/10 4/3/10 10/31/10 9/32/10
f 5/12/11 6/11/11 16/30/11 14/29/11
f 20/10/12 36/23/12 16/24/12 6/11/12
f 22/26/13 24/17/13 14/18/13 11/27/13
f 9/32/14 10/31/14 13/6/14 15/5/14
f 30/33/15 32/34/15 24/17/15 22/26/15
f 28/35/16 35/36/16 36/23/16 20/10/16
f 27/37/17 30/33/17 22/26/17 17/25/17
f 31/38/9 29/39/9 37/40/9 39/41/9
f 33/42/18 25/43/18 18/20/18 34/19/18
f 32/34/19 26/44/19 19/9/19 24/17/19
f 26/44/20 28/35/20 20/10/20 19/9/20
f 1/45/21 2/46/21 18/47/21 17/48/21
f 7/8/22 8/7/22 28/35/22 26/44/22
f 15/49/23 7/8/23 26/44/23 32/34/23
f 10/50/24 4/51/24 25/43/24 33/42/24
f 13/52/25 10/50/25 33/42/25 35/36/25
f 3/53/26 9/54/26 30/33/26 27/37/26
f 8/7/27 13/52/27 35/36/27 28/35/27
f 9/54/28 15/49/28 32/34/28 30/33/28
f 17/48/29 18/47/29 25/2/29 27/1/29
f 21/55/30 29/39/30 33/56/30 34/57/30
f 31/38/30 23/58/30 36/59/30 35/60/30
f 23/58/30 21/55/30 34/57/30 36/59/30
f 29/39/30 31/38/30 35/60/30 33/56/30
f 39/61/30 37/62/30 38/63/30 40/64/30
f 23/58/29 31/38/29 39/41/29 40/65/29
f 21/55/14 23/58/14 40/65/14 38/66/14
f 29/39/20 21/55/20 38/66/20 37/40/20
f 41/67/30 42/68/30 44/69/30 43/70/30
f 45/71/30 46/72/30 48/73/30 47/74/30
