# Blender v2.90.1 OBJ File: 'LowPoly Spaceships.blend'
# www.blender.org
mtllib laser-red.mtl
o LaserRed_Cone
v -0.000000 -0.640000 0.640000
v 0.640000 0.000000 0.640000
v -0.000000 0.640000 0.640000
v -0.640000 0.000000 0.640000
v -0.000000 -0.000000 -2.560000
v -0.000000 -0.000000 1.600000
vt 0.939085 0.995808
vt 0.941769 0.995808
vt 0.941770 0.998492
vt 0.944454 0.995807
vt 0.943319 0.990157
vt 0.950547 0.990517
vt 0.947113 0.986723
vt 0.941768 0.993123
vt 0.943322 0.990655
vt 0.950557 0.990499
vt 0.946861 0.986959
vt 0.942585 0.990884
vt 0.949819 0.990680
vt 0.946100 0.987165
vt 0.941315 0.990081
vt 0.948551 0.990133
vt 0.944959 0.986488
vn 0.7001 -0.7001 -0.1400
vn 0.7001 0.7001 -0.1400
vn 0.6396 -0.6396 0.4264
vn -0.7001 0.7001 -0.1400
vn -0.7001 -0.7001 -0.1400
vn 0.6396 0.6396 0.4264
vn -0.6396 0.6396 0.4264
vn -0.6396 -0.6396 0.4264
usemtl Material-1
s off
f 1/1/1 5/2/1 2/3/1
f 2/3/2 5/2/2 3/4/2
f 1/5/3 2/6/3 6/7/3
f 3/4/4 5/2/4 4/8/4
f 4/8/5 5/2/5 1/1/5
f 2/9/6 3/10/6 6/11/6
f 3/12/7 4/13/7 6/14/7
f 4/15/8 1/16/8 6/17/8
