# Blender v2.90.1 OBJ File: 'LowPoly Spaceships.blend'
# www.blender.org
mtllib m2-part04.mtl
o Engine-1.001_Cube.015
v 1.333354 1.040900 -4.749640
v 1.333354 -1.040900 -4.749640
v 1.198097 0.805576 4.749640
v 1.198097 -0.805576 4.749640
v 1.743760 0.000000 -4.749640
v 1.515719 0.000000 4.749640
v 1.746912 1.589254 -2.681252
v 2.215935 0.000000 -4.749640
v 1.667487 -1.391013 -4.749640
v 2.215935 0.000000 4.749640
v 1.667487 -1.391013 4.749640
v 1.667487 1.391013 -4.749640
v 1.667487 1.391013 4.749640
v 1.743760 0.000000 -2.743868
v 1.333354 -1.040900 -2.743868
v 1.333354 1.040900 -2.743868
v 1.515719 0.000000 3.745411
v 1.198097 -0.805576 3.745411
v 1.198097 0.805576 3.745411
v 1.746912 1.589254 0.936441
v 1.746912 -1.589254 0.936441
v 1.746912 -1.589254 -2.681252
v 2.373523 0.000000 -2.681252
v 2.373523 0.000000 0.936441
v -1.333354 1.040900 -4.749640
v -1.333354 -1.040900 -4.749640
v -1.198097 0.805576 4.749640
v -1.198097 -0.805576 4.749640
v -1.743760 0.000000 -4.749640
v -1.515719 0.000000 4.749640
v -1.746912 1.589254 -2.681252
v -2.215935 0.000000 -4.749640
v -1.667487 -1.391013 -4.749640
v -2.215935 0.000000 4.749640
v -1.667487 -1.391013 4.749640
v -1.667487 1.391013 -4.749640
v -1.667487 1.391013 4.749640
v -1.743760 0.000000 -2.743868
v -1.333354 -1.040900 -2.743868
v -1.333354 1.040900 -2.743868
v -1.515719 0.000000 3.745411
v -1.198097 -0.805576 3.745411
v -1.198097 0.805576 3.745411
v -1.746912 1.589254 0.936441
v -1.746912 -1.589254 0.936441
v -1.746912 -1.589254 -2.681252
v -2.373523 0.000000 -2.681252
v -2.373523 0.000000 0.936441
v 0.000000 -1.495919 -4.749640
v 0.000000 1.157725 4.749640
v 0.000000 -1.157725 4.749640
v 0.000000 1.495919 -4.749640
v 0.000000 0.000000 3.745411
v 0.000000 -1.960057 4.749640
v 0.000000 1.960057 -4.749640
v 0.000000 -1.960057 -4.749640
v 0.000000 1.960057 4.749640
v 0.000000 0.000000 -2.743868
v 0.000000 -1.495919 -2.743868
v 0.000000 1.495919 -2.743868
v 0.000000 -1.157725 3.745411
v 0.000000 1.157725 3.745411
v 0.000000 2.239397 -2.681252
v 0.000000 2.239397 0.936441
v 0.000000 -2.239397 -2.681252
v 0.000000 -2.239397 0.936441
vt 0.250000 0.643707
vt 0.375000 0.643707
vt 0.375000 0.750000
vt 0.250000 0.750000
vt 0.500000 0.643707
vt 0.625000 0.643707
vt 0.625000 0.750000
vt 0.500000 0.750000
vt 0.586475 0.467344
vt 0.500000 0.473365
vt 0.500000 0.473365
vt 0.586475 0.467344
vt 0.750000 0.643707
vt 0.750000 0.750000
vt 0.413525 0.782656
vt 0.500000 0.776635
vt 0.500000 0.776635
vt 0.413525 0.782656
vt 0.586475 0.782656
vt 0.595400 0.875000
vt 0.595400 0.875000
vt 0.586475 0.782656
vt 0.595400 0.375000
vt 0.595400 0.375000
vt 0.413525 0.467344
vt 0.500000 0.500000
vt 0.375000 0.500000
vt 0.404600 0.875000
vt 0.375000 0.875000
vt 0.625000 0.375000
vt 0.625000 0.500000
vt 0.404600 0.375000
vt 0.375000 0.375000
vt 0.625000 0.875000
vt 0.500000 0.375000
vt 0.404600 0.375000
vt 0.413525 0.467344
vt 0.500000 0.875000
vt 0.404600 0.875000
vt 0.500000 0.560374
vt 0.375000 0.560374
vt 0.750000 0.500000
vt 0.750000 0.560374
vt 0.625000 0.560374
vt 0.250000 0.500000
vt 0.250000 0.560374
vt 0.375000 0.750000
vt 0.375000 0.643707
vt 0.500000 0.643707
vt 0.500000 0.750000
vt 0.625000 0.750000
vt 0.625000 0.643707
vt 0.586475 0.467344
vt 0.586475 0.467344
vt 0.500000 0.473365
vt 0.500000 0.473365
vt 0.413525 0.782656
vt 0.413525 0.782656
vt 0.500000 0.776635
vt 0.500000 0.776635
vt 0.586475 0.782656
vt 0.586475 0.782656
vt 0.413525 0.467344
vt 0.375000 0.500000
vt 0.500000 0.500000
vt 0.625000 0.500000
vt 0.413525 0.467344
vt 0.375000 0.560374
vt 0.500000 0.560374
vt 0.625000 0.560374
vn 0.3356 -0.9399 0.0624
vn 0.9296 0.3665 0.0384
vn -0.9303 -0.3668 0.0000
vn 0.3356 0.9399 0.0624
vn -0.9303 0.3668 0.0000
vn -0.2820 -0.9594 0.0000
vn -0.3230 -0.9464 0.0000
vn 0.9296 -0.3665 0.0384
vn 0.0000 0.0000 -1.0000
vn 0.0000 0.0000 1.0000
vn -0.3230 0.9464 0.0000
vn -0.2820 0.9594 0.0000
vn 0.9280 -0.3659 -0.0707
vn 0.9303 -0.3668 0.0000
vn 0.3341 0.9356 -0.1144
vn 0.3488 0.9372 0.0000
vn 0.9280 0.3659 -0.0707
vn 0.9303 0.3668 0.0000
vn 0.3341 -0.9356 -0.1144
vn 0.3488 -0.9372 0.0000
vn -0.3356 -0.9399 0.0624
vn -0.9296 0.3665 0.0384
vn -0.3356 0.9399 0.0624
vn 0.2820 -0.9594 0.0000
vn 0.3230 -0.9464 0.0000
vn -0.9296 -0.3665 0.0384
vn 0.3230 0.9464 0.0000
vn 0.2820 0.9594 0.0000
vn -0.9280 -0.3659 -0.0707
vn -0.3341 0.9356 -0.1144
vn -0.3488 0.9372 0.0000
vn -0.9280 0.3659 -0.0707
vn -0.3341 -0.9356 -0.1144
vn -0.3488 -0.9372 0.0000
usemtl Material-2
s off
f 66/1/1 21/2/1 11/3/1 54/4/1
f 24/5/2 20/6/2 13/7/2 10/8/2
f 1/9/3 5/10/3 14/11/3 16/12/3
f 20/6/4 64/13/4 57/14/4 13/7/4
f 4/15/5 6/16/5 17/17/5 18/18/5
f 3/19/6 50/20/6 62/21/6 19/22/6
f 52/23/7 1/9/7 16/12/7 60/24/7
f 21/2/8 24/5/8 10/8/8 11/3/8
f 2/25/9 5/10/9 8/26/9 9/27/9
f 6/16/10 4/15/10 11/3/10 10/8/10
f 4/15/10 51/28/10 54/29/10 11/3/10
f 1/9/9 52/23/9 55/30/9 12/31/9
f 49/32/9 2/25/9 9/27/9 56/33/9
f 50/20/10 3/19/10 13/7/10 57/34/10
f 5/10/9 1/9/9 12/31/9 8/26/9
f 3/19/10 6/16/10 10/8/10 13/7/10
f 58/35/9 60/24/9 16/12/9 14/11/9
f 59/36/9 58/35/9 14/11/9 15/37/9
f 2/25/11 49/32/11 59/36/11 15/37/11
f 5/10/5 2/25/5 15/37/5 14/11/5
f 17/17/10 19/22/10 62/21/10 53/38/10
f 18/18/10 17/17/10 53/38/10 61/39/10
f 51/28/12 4/15/12 18/18/12 61/39/12
f 6/16/3 3/19/3 19/22/3 17/17/3
f 9/27/13 8/26/13 23/40/13 22/41/13
f 22/41/14 23/40/14 24/5/14 21/2/14
f 12/31/15 55/42/15 63/43/15 7/44/15
f 7/44/16 63/43/16 64/13/16 20/6/16
f 8/26/17 12/31/17 7/44/17 23/40/17
f 23/40/18 7/44/18 20/6/18 24/5/18
f 56/45/19 9/27/19 22/41/19 65/46/19
f 65/46/20 22/41/20 21/2/20 66/1/20
f 66/1/21 54/4/21 35/47/21 45/48/21
f 48/49/22 34/50/22 37/51/22 44/52/22
f 25/53/14 40/54/14 38/55/14 29/56/14
f 44/52/23 37/51/23 57/14/23 64/13/23
f 28/57/18 42/58/18 41/59/18 30/60/18
f 27/61/24 43/62/24 62/21/24 50/20/24
f 52/23/25 60/24/25 40/54/25 25/53/25
f 45/48/26 35/47/26 34/50/26 48/49/26
f 26/63/9 33/64/9 32/65/9 29/56/9
f 30/60/10 34/50/10 35/47/10 28/57/10
f 28/57/10 35/47/10 54/29/10 51/28/10
f 25/53/9 36/66/9 55/30/9 52/23/9
f 49/32/9 56/33/9 33/64/9 26/63/9
f 50/20/10 57/34/10 37/51/10 27/61/10
f 29/56/9 32/65/9 36/66/9 25/53/9
f 27/61/10 37/51/10 34/50/10 30/60/10
f 58/35/9 38/55/9 40/54/9 60/24/9
f 59/36/9 39/67/9 38/55/9 58/35/9
f 26/63/27 39/67/27 59/36/27 49/32/27
f 29/56/18 38/55/18 39/67/18 26/63/18
f 41/59/10 53/38/10 62/21/10 43/62/10
f 42/58/10 61/39/10 53/38/10 41/59/10
f 51/28/28 61/39/28 42/58/28 28/57/28
f 30/60/14 41/59/14 43/62/14 27/61/14
f 33/64/29 46/68/29 47/69/29 32/65/29
f 46/68/3 45/48/3 48/49/3 47/69/3
f 36/66/30 31/70/30 63/43/30 55/42/30
f 31/70/31 44/52/31 64/13/31 63/43/31
f 32/65/32 47/69/32 31/70/32 36/66/32
f 47/69/5 48/49/5 44/52/5 31/70/5
f 56/45/33 65/46/33 46/68/33 33/64/33
f 65/46/34 66/1/34 45/48/34 46/68/34
