# Blender v2.90.1 OBJ File: 'LowPoly Spaceships.blend'
# www.blender.org
mtllib m2-ship1.mtl
o M2_Ship_1_Cube.059
v 2.735506 1.445357 -5.835686
v 2.735506 0.301598 -5.835686
v 0.863776 0.615427 10.109172
v 0.863776 -0.615427 10.109172
v 4.213783 1.003993 -3.386374
v 4.213783 -1.095979 -3.386374
v 3.006337 1.003993 7.659860
v 3.006337 -1.095979 7.659860
v 2.735506 1.945180 -1.824980
v 2.735506 1.945180 4.608120
v 2.735506 -1.653493 4.608120
v 2.735506 -1.653493 -1.824980
v 4.388823 1.048450 -0.565079
v 4.388823 1.048450 4.235147
v 4.388823 -1.051522 4.235147
v 4.388823 -1.051522 -0.565079
v 3.640507 -0.295183 4.198543
v 3.640507 0.349959 4.198543
v 3.640507 -0.295183 -3.289457
v 3.640507 0.349959 -3.289457
v 8.152672 -0.295183 4.198543
v 8.152672 -0.295183 -3.289457
v 8.152672 0.349959 -3.289457
v 13.141561 -0.089187 -2.682679
v 13.141561 -0.089187 2.199113
v 8.152672 0.349959 4.198543
v 13.141561 0.143963 -2.682679
v 13.141561 0.143963 2.199113
v 8.733541 0.892071 -5.458493
v 8.733541 -0.892071 -5.458493
v 8.425488 0.561205 5.359960
v 8.425488 -0.561205 5.359960
v 9.085267 0.000000 -5.458493
v 8.646761 0.000000 5.359960
v 9.087969 1.362021 -3.158707
v 9.489930 0.000000 -5.458493
v 9.019899 -1.192124 -5.458493
v 9.134566 0.000000 5.359960
v 8.752489 -0.969051 5.359960
v 9.019899 1.192124 -5.458493
v 8.752489 0.969051 5.359960
v 9.085267 0.000000 -4.267847
v 8.733541 -0.892071 -4.267847
v 8.733541 0.892071 -4.267847
v 8.646761 0.000000 4.618484
v 8.425488 -0.561205 4.618484
v 8.425488 0.561205 4.618484
v 9.087969 1.362021 1.181613
v 9.087969 -1.362021 1.181613
v 9.087969 -1.362021 -3.158707
v 9.624986 0.000000 -3.158707
v 9.624986 0.000000 1.181613
v 6.448123 0.892071 -5.458493
v 6.448123 -0.892071 -5.458493
v 6.756176 0.561205 5.359960
v 6.756176 -0.561205 5.359960
v 7.590832 -1.282030 -5.458493
v 7.590832 0.806531 5.359960
v 7.590832 -0.806531 5.359960
v 7.590832 1.282030 -5.458493
v 6.096397 0.000000 -5.458493
v 6.534904 0.000000 5.359960
v 6.093696 1.362021 -3.158707
v 7.590832 0.000000 4.618484
v 5.691734 0.000000 -5.458493
v 6.161766 -1.192124 -5.458493
v 6.047098 0.000000 5.359960
v 6.429176 -0.969051 5.359960
v 7.590832 -1.365476 5.359960
v 7.590832 1.679806 -5.458493
v 6.161766 1.192124 -5.458493
v 7.590832 -1.679806 -5.458493
v 6.429176 0.969051 5.359960
v 7.590832 1.365476 5.359960
v 7.590832 0.000000 -4.267847
v 7.590832 -1.282030 -4.267847
v 7.590832 1.282030 -4.267847
v 6.096397 0.000000 -4.267847
v 6.448123 -0.892071 -4.267847
v 6.448123 0.892071 -4.267847
v 7.590832 -0.806531 4.618484
v 7.590832 0.806531 4.618484
v 6.534904 0.000000 4.618484
v 6.756176 -0.561205 4.618484
v 6.756176 0.561205 4.618484
v 6.093696 1.362021 1.181613
v 6.093696 -1.362021 1.181613
v 6.093696 -1.362021 -3.158707
v 7.590832 1.919205 -3.158707
v 7.590832 1.919205 1.181613
v 7.590832 -1.919205 -3.158707
v 7.590832 -1.919205 1.181613
v 5.556679 0.000000 -3.158707
v 5.556679 0.000000 1.181613
v 0.248131 -0.065259 -0.637824
v 0.248131 0.551397 -5.835685
v 0.248131 1.945180 -0.637824
v 0.248131 1.945180 -6.397823
v -2.735506 1.445357 -5.835686
v -2.735506 0.301598 -5.835686
v -0.863776 0.615427 10.109172
v -0.863776 -0.615427 10.109172
v -4.213783 1.003993 -3.386374
v -4.213783 -1.095979 -3.386374
v -3.006337 1.003993 7.659860
v -3.006337 -1.095979 7.659860
v -2.735506 1.945180 -1.824980
v -2.735506 1.945180 4.608120
v -2.735506 -1.653493 4.608120
v -2.735506 -1.653493 -1.824980
v -4.388823 1.048450 -0.565079
v -4.388823 1.048450 4.235147
v -4.388823 -1.051522 4.235147
v -4.388823 -1.051522 -0.565079
v 0.000000 0.301598 -5.835686
v 0.000000 0.615427 10.109172
v 0.000000 -0.615427 10.109172
v 0.000000 1.445357 -5.835686
v 0.000000 2.272576 -1.824980
v 0.000000 2.272576 4.608120
v 0.000000 -1.653493 -1.824980
v 0.000000 -1.653493 4.608120
v -3.640507 -0.295183 4.198543
v -3.640507 0.349959 4.198543
v -3.640507 -0.295183 -3.289457
v -3.640507 0.349959 -3.289457
v -8.152672 -0.295183 4.198543
v -8.152672 -0.295183 -3.289457
v -8.152672 0.349959 -3.289457
v -13.141561 -0.089187 -2.682679
v -13.141561 -0.089187 2.199113
v -8.152672 0.349959 4.198543
v -13.141561 0.143963 -2.682679
v -13.141561 0.143963 2.199113
v -8.733541 0.892071 -5.458493
v -8.733541 -0.892071 -5.458493
v -8.425488 0.561205 5.359960
v -8.425488 -0.561205 5.359960
v -9.085267 0.000000 -5.458493
v -8.646761 0.000000 5.359960
v -9.087969 1.362021 -3.158707
v -9.489930 0.000000 -5.458493
v -9.019899 -1.192124 -5.458493
v -9.134566 0.000000 5.359960
v -8.752489 -0.969051 5.359960
v -9.019899 1.192124 -5.458493
v -8.752489 0.969051 5.359960
v -9.085267 0.000000 -4.267847
v -8.733541 -0.892071 -4.267847
v -8.733541 0.892071 -4.267847
v -8.646761 0.000000 4.618484
v -8.425488 -0.561205 4.618484
v -8.425488 0.561205 4.618484
v -9.087969 1.362021 1.181613
v -9.087969 -1.362021 1.181613
v -9.087969 -1.362021 -3.158707
v -9.624986 0.000000 -3.158707
v -9.624986 0.000000 1.181613
v -6.448123 0.892071 -5.458493
v -6.448123 -0.892071 -5.458493
v -6.756176 0.561205 5.359960
v -6.756176 -0.561205 5.359960
v -7.590832 -1.282030 -5.458493
v -7.590832 0.806531 5.359960
v -7.590832 -0.806531 5.359960
v -7.590832 1.282030 -5.458493
v -6.096397 0.000000 -5.458493
v -6.534904 0.000000 5.359960
v -6.093696 1.362021 -3.158707
v -7.590832 0.000000 4.618484
v -5.691734 0.000000 -5.458493
v -6.161766 -1.192124 -5.458493
v -6.047098 0.000000 5.359960
v -6.429176 -0.969051 5.359960
v -7.590832 -1.365476 5.359960
v -7.590832 1.679806 -5.458493
v -6.161766 1.192124 -5.458493
v -7.590832 -1.679806 -5.458493
v -6.429176 0.969051 5.359960
v -7.590832 1.365476 5.359960
v -7.590832 0.000000 -4.267847
v -7.590832 -1.282030 -4.267847
v -7.590832 1.282030 -4.267847
v -6.096397 0.000000 -4.267847
v -6.448123 -0.892071 -4.267847
v -6.448123 0.892071 -4.267847
v -7.590832 -0.806531 4.618484
v -7.590832 0.806531 4.618484
v -6.534904 0.000000 4.618484
v -6.756176 -0.561205 4.618484
v -6.756176 0.561205 4.618484
v -6.093696 1.362021 1.181613
v -6.093696 -1.362021 1.181613
v -6.093696 -1.362021 -3.158707
v -7.590832 1.919205 -3.158707
v -7.590832 1.919205 1.181613
v -7.590832 -1.919205 -3.158707
v -7.590832 -1.919205 1.181613
v -5.556679 0.000000 -3.158707
v -5.556679 0.000000 1.181613
v -0.248131 -0.065259 -0.637824
v -0.248131 0.551397 -5.835685
v -0.248131 1.945180 -0.637824
v -0.248131 1.945180 -6.397823
v 0.000000 4.483280 -2.573971
v 0.000000 -0.065259 -0.637824
v 0.000000 0.551397 -5.835685
v 0.000000 1.945180 -6.397823
v 0.000000 1.945180 -0.637824
v 0.000000 4.483280 -5.931070
vt -0.038337 0.511647
vt 0.086663 0.511647
vt 0.086663 0.594980
vt -0.038337 0.594980
vt 0.336663 0.594980
vt 0.086663 0.594980
vt 0.336663 0.594980
vt 0.086663 0.219980
vt 0.336663 0.219980
vt 0.336663 0.344980
vt 0.086663 0.344980
vt 0.336663 0.511647
vt 0.461663 0.511647
vt 0.461663 0.594980
vt 0.336663 0.719980
vt 0.086663 0.719980
vt 0.086663 0.511647
vt 0.336663 0.511647
vt 0.336663 0.344980
vt 0.086663 0.344980
vt 0.086663 0.428314
vt 0.086663 0.428314
vt 0.336663 0.428314
vt 0.336663 0.428314
vt 0.461663 0.344980
vt 0.461663 0.428314
vt -0.038337 0.344980
vt -0.038337 0.428314
vt 1.081202 0.632627
vt 0.968666 0.481005
vt 0.817045 0.593541
vt 0.929581 0.745163
vt 0.665423 0.706077
vt 0.777959 0.857699
vt 0.513802 0.818613
vt 0.626338 0.970235
vt 0.626338 0.970235
vt 0.513802 0.818613
vt 0.362180 0.931149
vt 0.474716 1.082771
vt 0.890495 1.009320
vt 0.738874 1.121856
vt 0.552887 0.554456
vt 0.401266 0.666992
vt 0.777959 0.857699
vt 0.665423 0.706077
vt 0.250000 0.643707
vt 0.375000 0.643707
vt 0.375000 0.750000
vt 0.250000 0.750000
vt 0.500000 0.643707
vt 0.625000 0.643707
vt 0.625000 0.750000
vt 0.500000 0.750000
vt 0.586475 0.467344
vt 0.500000 0.473365
vt 0.500000 0.473365
vt 0.586475 0.467344
vt 0.750000 0.643707
vt 0.750000 0.750000
vt 0.413525 0.782656
vt 0.500000 0.776635
vt 0.500000 0.776635
vt 0.413525 0.782656
vt 0.586475 0.782656
vt 0.595400 0.875000
vt 0.595400 0.875000
vt 0.586475 0.782656
vt 0.595400 0.375000
vt 0.595400 0.375000
vt 0.413525 0.467344
vt 0.500000 0.500000
vt 0.375000 0.500000
vt 0.404600 0.875000
vt 0.375000 0.875000
vt 0.625000 0.375000
vt 0.625000 0.500000
vt 0.404600 0.375000
vt 0.375000 0.375000
vt 0.625000 0.875000
vt 0.500000 0.375000
vt 0.404600 0.375000
vt 0.413525 0.467344
vt 0.500000 0.875000
vt 0.404600 0.875000
vt 0.500000 0.560374
vt 0.375000 0.560374
vt 0.750000 0.500000
vt 0.750000 0.560374
vt 0.625000 0.560374
vt 0.250000 0.500000
vt 0.250000 0.560374
vt 0.375000 0.750000
vt 0.375000 0.643707
vt 0.500000 0.643707
vt 0.500000 0.750000
vt 0.625000 0.750000
vt 0.625000 0.643707
vt 0.586475 0.467344
vt 0.586475 0.467344
vt 0.500000 0.473365
vt 0.500000 0.473365
vt 0.413525 0.782656
vt 0.413525 0.782656
vt 0.500000 0.776635
vt 0.500000 0.776635
vt 0.586475 0.782656
vt 0.586475 0.782656
vt 0.413525 0.467344
vt 0.375000 0.500000
vt 0.500000 0.500000
vt 0.625000 0.500000
vt 0.413525 0.467344
vt 0.375000 0.560374
vt 0.500000 0.560374
vt 0.625000 0.560374
vt 0.570070 0.894424
vt 0.626338 0.970235
vt 0.570070 0.894424
vt 0.890495 1.009320
vt 0.777959 0.857699
vt 0.738874 1.121856
vt 0.777959 0.857699
vt 0.626338 0.970235
vt 0.721691 0.781888
vt 0.418448 1.006960
vt 0.474716 1.082771
vt 0.929581 0.745163
vt 0.873313 0.669352
vt 1.081202 0.632627
vt 1.024934 0.556816
vt 0.086663 0.594980
vt 0.086663 0.511647
vt 0.336663 0.594980
vt 0.336663 0.594980
vt 0.086663 0.594980
vt 0.086663 0.344980
vt 0.336663 0.344980
vt 0.336663 0.511647
vt 0.086663 0.511647
vt 0.336663 0.511647
vt 0.086663 0.344980
vt 0.336663 0.344980
vt 0.086663 0.428314
vt 0.086663 0.428314
vt 0.336663 0.428314
vt 0.336663 0.428314
vt 1.081202 0.632627
vt 0.929581 0.745163
vt 0.817045 0.593541
vt 0.968666 0.481005
vt 0.777959 0.857699
vt 0.665423 0.706077
vt 0.513802 0.818613
vt 0.513802 0.818613
vt 0.626338 0.970235
vt 0.626338 0.970235
vt 0.474716 1.082771
vt 0.362180 0.931149
vt 0.890495 1.009320
vt 0.738874 1.121856
vt 0.401266 0.666992
vt 0.552887 0.554456
vt 0.777959 0.857699
vt 0.665423 0.706077
vt 0.250000 0.643707
vt 0.250000 0.750000
vt 0.375000 0.750000
vt 0.375000 0.643707
vt 0.500000 0.643707
vt 0.500000 0.750000
vt 0.625000 0.750000
vt 0.625000 0.643707
vt 0.586475 0.467344
vt 0.586475 0.467344
vt 0.500000 0.473365
vt 0.500000 0.473365
vt 0.750000 0.750000
vt 0.750000 0.643707
vt 0.413525 0.782656
vt 0.413525 0.782656
vt 0.500000 0.776635
vt 0.500000 0.776635
vt 0.586475 0.782656
vt 0.586475 0.782656
vt 0.595400 0.875000
vt 0.595400 0.875000
vt 0.595400 0.375000
vt 0.595400 0.375000
vt 0.413525 0.467344
vt 0.375000 0.500000
vt 0.500000 0.500000
vt 0.375000 0.875000
vt 0.404600 0.875000
vt 0.625000 0.500000
vt 0.625000 0.375000
vt 0.404600 0.375000
vt 0.375000 0.375000
vt 0.625000 0.875000
vt 0.500000 0.375000
vt 0.404600 0.375000
vt 0.413525 0.467344
vt 0.500000 0.875000
vt 0.404600 0.875000
vt 0.375000 0.560374
vt 0.500000 0.560374
vt 0.625000 0.560374
vt 0.750000 0.560374
vt 0.750000 0.500000
vt 0.250000 0.500000
vt 0.250000 0.560374
vt 0.375000 0.643707
vt 0.375000 0.750000
vt 0.500000 0.643707
vt 0.625000 0.643707
vt 0.625000 0.750000
vt 0.500000 0.750000
vt 0.586475 0.467344
vt 0.500000 0.473365
vt 0.500000 0.473365
vt 0.586475 0.467344
vt 0.413525 0.782656
vt 0.500000 0.776635
vt 0.500000 0.776635
vt 0.413525 0.782656
vt 0.586475 0.782656
vt 0.586475 0.782656
vt 0.413525 0.467344
vt 0.500000 0.500000
vt 0.375000 0.500000
vt 0.625000 0.500000
vt 0.413525 0.467344
vt 0.500000 0.560374
vt 0.375000 0.560374
vt 0.625000 0.560374
vt 0.626338 0.970235
vt 0.890495 1.009320
vt 0.738874 1.121856
vt 0.777959 0.857699
vt 0.474716 1.082771
vt 0.929581 0.745163
vt 1.081202 0.632627
vn 0.0000 -0.9827 0.1854
vn 0.7527 0.0000 0.6584
vn 0.0000 0.0000 -1.0000
vn 0.0871 0.9576 0.2748
vn 0.0000 0.0000 1.0000
vn 0.9273 0.0000 0.3743
vn 0.3119 0.9154 0.2546
vn 0.8561 0.0000 -0.5167
vn 0.0764 -0.9597 -0.2704
vn 0.1534 -0.9744 0.1644
vn 0.3421 -0.9397 0.0000
vn 0.4722 0.8777 -0.0820
vn 0.4768 0.8790 0.0000
vn 0.9981 0.0000 -0.0619
vn 1.0000 0.0000 0.0000
vn 0.0589 0.9849 -0.1629
vn 0.1188 0.9929 0.0000
vn 0.0000 -0.8989 -0.4382
vn 0.0000 -1.0000 0.0000
vn -1.0000 0.0000 0.0000
vn 0.3720 0.0000 0.9282
vn 0.0000 1.0000 0.0000
vn 0.0413 -0.9991 0.0000
vn 0.1207 0.0000 -0.9927
vn 0.0413 0.9991 0.0000
vn 0.3352 -0.9346 0.1193
vn 0.9248 0.3646 0.1085
vn -0.9303 -0.3668 0.0000
vn 0.3352 0.9346 0.1193
vn -0.9303 0.3668 0.0000
vn -0.2820 -0.9594 0.0000
vn -0.3230 -0.9464 0.0000
vn 0.9248 -0.3646 0.1085
vn -0.3230 0.9464 0.0000
vn -0.2820 0.9594 0.0000
vn 0.9289 -0.3663 -0.0546
vn 0.9303 -0.3668 0.0000
vn 0.3350 0.9381 -0.0884
vn 0.3488 0.9372 0.0000
vn 0.9289 0.3663 -0.0546
vn 0.9303 0.3668 0.0000
vn 0.3350 -0.9381 -0.0884
vn 0.3488 -0.9372 0.0000
vn -0.3352 -0.9346 0.1193
vn -0.9248 0.3646 0.1085
vn -0.3352 0.9346 0.1193
vn 0.2820 -0.9594 0.0000
vn 0.3230 -0.9464 0.0000
vn -0.9248 -0.3646 0.1085
vn 0.3230 0.9464 0.0000
vn 0.2820 0.9594 0.0000
vn -0.9289 -0.3663 -0.0546
vn -0.3350 0.9381 -0.0884
vn -0.3488 0.9372 0.0000
vn -0.9289 0.3663 -0.0546
vn -0.3350 -0.9381 -0.0884
vn -0.3488 -0.9372 0.0000
vn 0.0000 0.6065 0.7951
vn 0.9953 0.0973 0.0000
vn 0.0000 0.1809 -0.9835
vn 0.0000 -0.3740 -0.9274
vn 0.0000 -0.9930 -0.1178
vn -0.7527 0.0000 0.6584
vn -0.0871 0.9576 0.2748
vn -0.9273 0.0000 0.3743
vn -0.3119 0.9154 0.2546
vn -0.8561 0.0000 -0.5167
vn -0.0764 -0.9597 -0.2704
vn -0.1534 -0.9744 0.1644
vn -0.3421 -0.9397 0.0000
vn -0.4722 0.8777 -0.0820
vn -0.4768 0.8790 0.0000
vn -0.9981 0.0000 -0.0619
vn -0.0589 0.9849 -0.1629
vn -0.1188 0.9929 0.0000
vn -0.3720 0.0000 0.9282
vn -0.0413 -0.9991 0.0000
vn -0.1207 0.0000 -0.9927
vn -0.0413 0.9991 0.0000
vn -0.9953 0.0973 0.0000
usemtl Material-2
s off
f 122/1/1 11/2/1 4/3/1 117/4/1
f 3/5/2 4/3/2 8/6/2 7/7/2
f 115/8/3 118/9/3 1/10/3 2/11/3
f 10/12/4 120/13/4 116/14/4 3/5/4
f 4/3/5 3/5/5 116/15/5 117/16/5
f 15/17/6 14/18/6 7/7/6 8/6/6
f 10/12/7 3/5/7 7/7/7 14/18/7
f 2/11/8 1/10/8 5/19/8 6/20/8
f 12/21/9 2/11/9 6/20/9 16/22/9
f 4/3/10 11/2/10 15/17/10 8/6/10
f 11/2/11 12/21/11 16/22/11 15/17/11
f 1/10/12 9/23/12 13/24/12 5/19/12
f 9/23/13 10/12/13 14/18/13 13/24/13
f 6/20/14 5/19/14 13/24/14 16/22/14
f 16/22/15 13/24/15 14/18/15 15/17/15
f 1/10/16 118/25/16 119/26/16 9/23/16
f 9/23/17 119/26/17 120/13/17 10/12/17
f 115/27/18 2/11/18 12/21/18 121/28/18
f 121/28/19 12/21/19 11/2/19 122/1/19
f 17/29/20 18/30/20 20/31/20 19/32/20
f 19/32/3 20/31/3 23/33/3 22/34/3
f 26/35/21 21/36/21 25/37/21 28/38/21
f 21/36/5 26/35/5 18/39/5 17/40/5
f 19/41/19 22/34/19 21/36/19 17/42/19
f 23/33/22 20/43/22 18/44/22 26/35/22
f 24/45/15 27/46/15 28/38/15 25/37/15
f 21/36/23 22/34/23 24/45/23 25/37/23
f 22/34/24 23/33/24 27/46/24 24/45/24
f 23/33/25 26/35/25 28/38/25 27/46/25
f 92/47/26 49/48/26 39/49/26 69/50/26
f 52/51/27 48/52/27 41/53/27 38/54/27
f 29/55/28 33/56/28 42/57/28 44/58/28
f 48/52/29 90/59/29 74/60/29 41/53/29
f 32/61/30 34/62/30 45/63/30 46/64/30
f 31/65/31 58/66/31 82/67/31 47/68/31
f 60/69/32 29/55/32 44/58/32 77/70/32
f 49/48/33 52/51/33 38/54/33 39/49/33
f 30/71/3 33/56/3 36/72/3 37/73/3
f 34/62/5 32/61/5 39/49/5 38/54/5
f 32/61/5 59/74/5 69/75/5 39/49/5
f 29/55/3 60/69/3 70/76/3 40/77/3
f 57/78/3 30/71/3 37/73/3 72/79/3
f 58/66/5 31/65/5 41/53/5 74/80/5
f 33/56/3 29/55/3 40/77/3 36/72/3
f 31/65/5 34/62/5 38/54/5 41/53/5
f 75/81/3 77/70/3 44/58/3 42/57/3
f 76/82/3 75/81/3 42/57/3 43/83/3
f 30/71/34 57/78/34 76/82/34 43/83/34
f 33/56/30 30/71/30 43/83/30 42/57/30
f 45/63/5 47/68/5 82/67/5 64/84/5
f 46/64/5 45/63/5 64/84/5 81/85/5
f 59/74/35 32/61/35 46/64/35 81/85/35
f 34/62/28 31/65/28 47/68/28 45/63/28
f 37/73/36 36/72/36 51/86/36 50/87/36
f 50/87/37 51/86/37 52/51/37 49/48/37
f 40/77/38 70/88/38 89/89/38 35/90/38
f 35/90/39 89/89/39 90/59/39 48/52/39
f 36/72/40 40/77/40 35/90/40 51/86/40
f 51/86/41 35/90/41 48/52/41 52/51/41
f 72/91/42 37/73/42 50/87/42 91/92/42
f 91/92/43 50/87/43 49/48/43 92/47/43
f 92/47/44 69/50/44 68/93/44 87/94/44
f 94/95/45 67/96/45 73/97/45 86/98/45
f 53/99/37 80/100/37 78/101/37 61/102/37
f 86/98/46 73/97/46 74/60/46 90/59/46
f 56/103/41 84/104/41 83/105/41 62/106/41
f 55/107/47 85/108/47 82/67/47 58/66/47
f 60/69/48 77/70/48 80/100/48 53/99/48
f 87/94/49 68/93/49 67/96/49 94/95/49
f 54/109/3 66/110/3 65/111/3 61/102/3
f 62/106/5 67/96/5 68/93/5 56/103/5
f 56/103/5 68/93/5 69/75/5 59/74/5
f 53/99/3 71/112/3 70/76/3 60/69/3
f 57/78/3 72/79/3 66/110/3 54/109/3
f 58/66/5 74/80/5 73/97/5 55/107/5
f 61/102/3 65/111/3 71/112/3 53/99/3
f 55/107/5 73/97/5 67/96/5 62/106/5
f 75/81/3 78/101/3 80/100/3 77/70/3
f 76/82/3 79/113/3 78/101/3 75/81/3
f 54/109/50 79/113/50 76/82/50 57/78/50
f 61/102/41 78/101/41 79/113/41 54/109/41
f 83/105/5 64/84/5 82/67/5 85/108/5
f 84/104/5 81/85/5 64/84/5 83/105/5
f 59/74/51 81/85/51 84/104/51 56/103/51
f 62/106/37 83/105/37 85/108/37 55/107/37
f 66/110/52 88/114/52 93/115/52 65/111/52
f 88/114/28 87/94/28 94/95/28 93/115/28
f 71/112/53 63/116/53 89/89/53 70/88/53
f 63/116/54 86/98/54 90/59/54 89/89/54
f 65/111/55 93/115/55 63/116/55 71/112/55
f 93/115/30 94/95/30 86/98/30 63/116/30
f 72/91/56 91/92/56 88/114/56 66/110/56
f 91/92/57 92/47/57 87/94/57 88/114/57
f 209/117/58 97/118/58 205/119/58
f 96/120/15 98/121/15 97/118/15 95/122/15
f 97/118/59 98/121/59 210/123/59 205/124/59
f 98/121/60 208/125/60 210/123/60
f 97/118/5 209/117/5 206/126/5 95/127/5
f 96/128/61 207/129/61 208/125/61 98/121/61
f 95/130/62 206/131/62 207/129/62 96/128/62
f 122/1/1 117/4/1 102/132/1 109/133/1
f 101/134/63 105/135/63 106/136/63 102/132/63
f 115/8/3 100/137/3 99/138/3 118/9/3
f 108/139/64 101/134/64 116/14/64 120/13/64
f 102/132/5 117/16/5 116/15/5 101/134/5
f 113/140/65 106/136/65 105/135/65 112/141/65
f 108/139/66 112/141/66 105/135/66 101/134/66
f 100/137/67 104/142/67 103/143/67 99/138/67
f 110/144/68 114/145/68 104/142/68 100/137/68
f 102/132/69 106/136/69 113/140/69 109/133/69
f 109/133/70 113/140/70 114/145/70 110/144/70
f 99/138/71 103/143/71 111/146/71 107/147/71
f 107/147/72 111/146/72 112/141/72 108/139/72
f 104/142/73 114/145/73 111/146/73 103/143/73
f 114/145/20 113/140/20 112/141/20 111/146/20
f 99/138/74 107/147/74 119/26/74 118/25/74
f 107/147/75 108/139/75 120/13/75 119/26/75
f 115/27/18 121/28/18 110/144/18 100/137/18
f 121/28/19 122/1/19 109/133/19 110/144/19
f 123/148/15 125/149/15 126/150/15 124/151/15
f 125/149/3 128/152/3 129/153/3 126/150/3
f 132/154/76 134/155/76 131/156/76 127/157/76
f 127/157/5 123/158/5 124/159/5 132/154/5
f 125/160/19 123/161/19 127/157/19 128/152/19
f 129/153/22 132/154/22 124/162/22 126/163/22
f 130/164/20 131/156/20 134/155/20 133/165/20
f 127/157/77 131/156/77 130/164/77 128/152/77
f 128/152/78 130/164/78 133/165/78 129/153/78
f 129/153/79 133/165/79 134/155/79 132/154/79
f 198/166/44 175/167/44 145/168/44 155/169/44
f 158/170/45 144/171/45 147/172/45 154/173/45
f 135/174/37 150/175/37 148/176/37 139/177/37
f 154/173/46 147/172/46 180/178/46 196/179/46
f 138/180/41 152/181/41 151/182/41 140/183/41
f 137/184/47 153/185/47 188/186/47 164/187/47
f 166/188/48 183/189/48 150/175/48 135/174/48
f 155/169/49 145/168/49 144/171/49 158/170/49
f 136/190/3 143/191/3 142/192/3 139/177/3
f 140/183/5 144/171/5 145/168/5 138/180/5
f 138/180/5 145/168/5 175/193/5 165/194/5
f 135/174/3 146/195/3 176/196/3 166/188/3
f 163/197/3 178/198/3 143/191/3 136/190/3
f 164/187/5 180/199/5 147/172/5 137/184/5
f 139/177/3 142/192/3 146/195/3 135/174/3
f 137/184/5 147/172/5 144/171/5 140/183/5
f 181/200/3 148/176/3 150/175/3 183/189/3
f 182/201/3 149/202/3 148/176/3 181/200/3
f 136/190/50 149/202/50 182/201/50 163/197/50
f 139/177/41 148/176/41 149/202/41 136/190/41
f 151/182/5 170/203/5 188/186/5 153/185/5
f 152/181/5 187/204/5 170/203/5 151/182/5
f 165/194/51 187/204/51 152/181/51 138/180/51
f 140/183/37 151/182/37 153/185/37 137/184/37
f 143/191/52 156/205/52 157/206/52 142/192/52
f 156/205/28 155/169/28 158/170/28 157/206/28
f 146/195/53 141/207/53 195/208/53 176/209/53
f 141/207/54 154/173/54 196/179/54 195/208/54
f 142/192/55 157/206/55 141/207/55 146/195/55
f 157/206/30 158/170/30 154/173/30 141/207/30
f 178/210/56 197/211/56 156/205/56 143/191/56
f 197/211/57 198/166/57 155/169/57 156/205/57
f 198/166/26 193/212/26 174/213/26 175/167/26
f 200/214/27 192/215/27 179/216/27 173/217/27
f 159/218/28 167/219/28 184/220/28 186/221/28
f 192/215/29 196/179/29 180/178/29 179/216/29
f 162/222/30 168/223/30 189/224/30 190/225/30
f 161/226/31 164/187/31 188/186/31 191/227/31
f 166/188/32 159/218/32 186/221/32 183/189/32
f 193/212/33 200/214/33 173/217/33 174/213/33
f 160/228/3 167/219/3 171/229/3 172/230/3
f 168/223/5 162/222/5 174/213/5 173/217/5
f 162/222/5 165/194/5 175/193/5 174/213/5
f 159/218/3 166/188/3 176/196/3 177/231/3
f 163/197/3 160/228/3 172/230/3 178/198/3
f 164/187/5 161/226/5 179/216/5 180/199/5
f 167/219/3 159/218/3 177/231/3 171/229/3
f 161/226/5 168/223/5 173/217/5 179/216/5
f 181/200/3 183/189/3 186/221/3 184/220/3
f 182/201/3 181/200/3 184/220/3 185/232/3
f 160/228/34 163/197/34 182/201/34 185/232/34
f 167/219/30 160/228/30 185/232/30 184/220/30
f 189/224/5 191/227/5 188/186/5 170/203/5
f 190/225/5 189/224/5 170/203/5 187/204/5
f 165/194/35 162/222/35 190/225/35 187/204/35
f 168/223/28 161/226/28 191/227/28 189/224/28
f 172/230/36 171/229/36 199/233/36 194/234/36
f 194/234/37 199/233/37 200/214/37 193/212/37
f 177/231/38 176/209/38 195/208/38 169/235/38
f 169/235/39 195/208/39 196/179/39 192/215/39
f 171/229/40 177/231/40 169/235/40 199/233/40
f 199/233/41 169/235/41 192/215/41 200/214/41
f 178/210/42 172/230/42 194/234/42 197/211/42
f 197/211/43 194/234/43 193/212/43 198/166/43
f 209/117/58 205/119/58 203/236/58
f 202/237/20 201/238/20 203/236/20 204/239/20
f 203/236/80 205/124/80 210/123/80 204/239/80
f 204/239/60 210/123/60 208/125/60
f 203/236/5 201/240/5 206/126/5 209/117/5
f 202/241/61 204/239/61 208/125/61 207/129/61
f 201/242/62 202/241/62 207/129/62 206/131/62
